<svg xmlns="http://www.w3.org/2000/svg" width="92.305" height="83" viewBox="0 0 92.305 83">
  <path id="Pfad_1" data-name="Pfad 1" d="M33.2,52.8l6.3-7.6a3.694,3.694,0,0,0,.7-1.4c0-.2.1-.5.1-.7a4.075,4.075,0,0,0-.5-1.8l-3.9-5.8a3.189,3.189,0,0,0-2.7-1.4H12.5a3.056,3.056,0,0,0-2.7,1.5L6,41.3a2.9,2.9,0,0,0-.5,1.8,1.952,1.952,0,0,0,.1.7,2.666,2.666,0,0,0,.7,1.4l6.4,7.6a19.05,19.05,0,1,0,20.5,0Zm-8.8,7.4,6.4-16h6.9Zm-2,3.1c.2,0,.3.1.5.1h0a.9.9,0,0,0,.5-.1,3.09,3.09,0,0,0,2-1.1L28.9,58a12.541,12.541,0,0,1,6.5,10.9A12.4,12.4,0,1,1,17.1,58l3.5,4.2A2.28,2.28,0,0,0,22.4,63.3Zm-.3-5.2-5.6-14h5.6Zm1.5,0v-14h5.6ZM38,42.4c0,.1.1.1.1.2H31.6l2.7-5.7ZM33.1,36h0l-2.8,5.8L27.6,36Zm-4,6.6h-5l2.5-5.2ZM25.6,36l-2.8,5.8L20.1,36Zm-4,6.6h-5l2.5-5.2ZM18.1,36l-2.8,5.8L12.6,36ZM7.7,42.4l3.6-5.6,2.8,5.8H7.6C7.6,42.5,7.6,42.5,7.7,42.4ZM8,44.1h6.9l6.4,16ZM22.9,86A17.157,17.157,0,0,1,5.8,68.9a17.5,17.5,0,0,1,8.1-14.6l1.7,2.1A14.411,14.411,0,1,0,37.2,68.9,14.621,14.621,0,0,0,30,56.4l1.7-2.1A17.14,17.14,0,0,1,22.9,86ZM84.5,47.4l4.8-5.8a3.694,3.694,0,0,0,.7-1.4c0-.2.1-.5.1-.7a4.075,4.075,0,0,0-.5-1.8l-4-5.7a3.189,3.189,0,0,0-2.7-1.4H62.3a3.056,3.056,0,0,0-2.7,1.5l-3.8,5.8a2.9,2.9,0,0,0-.5,1.8,1.952,1.952,0,0,0,.1.7,2.666,2.666,0,0,0,.7,1.4l4.8,5.8A23.059,23.059,0,0,0,49,67.9,23.6,23.6,0,1,0,84.5,47.4ZM74.2,56.7l6.4-16h6.9Zm-2.1,3.1c.2,0,.3.1.5.1a.9.9,0,0,0,.5-.1,3.09,3.09,0,0,0,2-1.1L79.9,53A16.6,16.6,0,1,1,56,67.9,16.452,16.452,0,0,1,65.4,53l4.8,5.7A3.113,3.113,0,0,0,72.1,59.8Zm-.2-5.1-5.6-14h5.6Zm1.5,0v-14H79ZM87.8,38.9c0,.1.1.1.1.2H81.4l2.7-5.7Zm-4.9-6.3h0l-2.8,5.8-2.8-5.8Zm-4,6.5h-5l2.5-5.2Zm-3.5-6.5-2.8,5.8-2.8-5.8Zm-4,6.5h-5l2.5-5.2Zm-3.5-6.5-2.8,5.8-2.8-5.8ZM57.4,38.9,61,33.3l2.8,5.8H57.3C57.4,39.1,57.4,39,57.4,38.9Zm.4,1.7h6.9l6.4,16ZM72.6,89.5A21.615,21.615,0,0,1,62.1,49l2,2.4A18.6,18.6,0,1,0,91.3,67.9a18.644,18.644,0,0,0-10-16.5l2-2.4A21.615,21.615,0,0,1,72.6,89.5ZM56.2,25.4a5,5,0,0,0-5.1-4.8A4.76,4.76,0,0,0,47,23.2a4.76,4.76,0,0,0-4.1-2.6,5,5,0,0,0-5.1,4.8c-.2,5.1,5,8.9,8.1,11.2A2.1,2.1,0,0,0,47,37a1.5,1.5,0,0,0,1.1-.4C51.1,34.3,56.3,30.5,56.2,25.4ZM42.8,22.6c1.4,0,2.3,1.2,2.9,2.6a1.213,1.213,0,0,0,1.2.7,1.387,1.387,0,0,0,1.2-.7c.7-1.4,1.5-2.6,2.9-2.6a2.949,2.949,0,0,1,3.1,2.9c.1,3.7-3.6,6.8-7.2,9.5-3.6-2.6-7.3-5.7-7.2-9.5A3.013,3.013,0,0,1,42.8,22.6Zm14.7-2.3a1.613,1.613,0,0,0,.9.3,1.4,1.4,0,0,0,.9-.3c2.2-1.6,6-4.4,5.8-8.1a3.8,3.8,0,0,0-3.9-3.7,3.553,3.553,0,0,0-2.9,1.6,3.553,3.553,0,0,0-2.9-1.6,3.868,3.868,0,0,0-3.9,3.7C51.5,15.9,55.3,18.7,57.5,20.3Zm-2-9.8c.8,0,1.3.7,1.8,1.7a1.214,1.214,0,0,0,2.2,0c.5-1,1-1.7,1.8-1.7a1.8,1.8,0,0,1,1.9,1.7c.1,2.4-2.4,4.5-4.8,6.3-2.4-1.8-4.9-3.9-4.8-6.3A1.87,1.87,0,0,1,55.5,10.5ZM33.6,20.8a1.5,1.5,0,0,0,1.8,0c1.9-1.4,5-3.7,4.9-6.9a3.4,3.4,0,0,0-3.4-3.2,3.117,3.117,0,0,0-2.4,1.2,3.117,3.117,0,0,0-2.4-1.2,3.334,3.334,0,0,0-3.4,3.2C28.6,17.1,31.8,19.4,33.6,20.8Zm-1.5-8.1c.6,0,1,.5,1.3,1.3a1.214,1.214,0,0,0,2.2,0c.4-.8.8-1.3,1.3-1.3A1.276,1.276,0,0,1,38.3,14c.1,1.9-1.9,3.6-3.8,5-1.9-1.4-3.9-3.1-3.8-5A1.276,1.276,0,0,1,32.1,12.7Z" transform="translate(-3.897 -8.5)"/>
</svg>
